<mxfile host="app.diagrams.net" modified="2024-05-20T16:01:23.603Z" agent="Mozilla/5.0 (Windows NT 10.0; Win64; x64) AppleWebKit/537.36 (KHTML, like Gecko) Chrome/124.0.0.0 Safari/537.36" etag="iQdYpuBgE0hEqjT2S6qc" version="24.4.4" type="device">
  <diagram name="Страница — 1" id="VmjqyNmFM1wg9IQqO81X">
    <mxGraphModel dx="1050" dy="1734" grid="1" gridSize="10" guides="1" tooltips="1" connect="1" arrows="1" fold="1" page="1" pageScale="1" pageWidth="827" pageHeight="1169" math="0" shadow="0">
      <root>
        <mxCell id="0" />
        <mxCell id="1" parent="0" />
        <mxCell id="yJR4qd-kgjqClzg5IudC-28" value="" style="edgeStyle=orthogonalEdgeStyle;rounded=0;orthogonalLoop=1;jettySize=auto;html=1;" parent="1" source="jmabir00x-mEjmgOhvh--1" target="yJR4qd-kgjqClzg5IudC-25" edge="1">
          <mxGeometry relative="1" as="geometry" />
        </mxCell>
        <mxCell id="jmabir00x-mEjmgOhvh--1" value="" style="ellipse;whiteSpace=wrap;html=1;" parent="1" vertex="1">
          <mxGeometry x="350" y="-1110" width="120" height="80" as="geometry" />
        </mxCell>
        <mxCell id="jmabir00x-mEjmgOhvh--2" value="&lt;b&gt;&lt;font style=&quot;font-size: 18px;&quot;&gt;Quiz-app&lt;/font&gt;&lt;/b&gt;" style="text;html=1;align=center;verticalAlign=middle;whiteSpace=wrap;rounded=0;strokeWidth=9;" parent="1" vertex="1">
          <mxGeometry x="360" y="-1092.5" width="100" height="45" as="geometry" />
        </mxCell>
        <mxCell id="yJR4qd-kgjqClzg5IudC-14" value="" style="rounded=1;whiteSpace=wrap;html=1;" parent="1" vertex="1">
          <mxGeometry x="40" y="-780" width="160" height="60" as="geometry" />
        </mxCell>
        <mxCell id="yJR4qd-kgjqClzg5IudC-15" value="" style="rounded=1;whiteSpace=wrap;html=1;" parent="1" vertex="1">
          <mxGeometry x="260" y="-780" width="120" height="60" as="geometry" />
        </mxCell>
        <mxCell id="yJR4qd-kgjqClzg5IudC-16" value="" style="rounded=1;whiteSpace=wrap;html=1;" parent="1" vertex="1">
          <mxGeometry x="170" y="-900" width="120" height="60" as="geometry" />
        </mxCell>
        <mxCell id="yJR4qd-kgjqClzg5IudC-17" value="" style="rounded=1;whiteSpace=wrap;html=1;" parent="1" vertex="1">
          <mxGeometry x="520" y="-890" width="120" height="60" as="geometry" />
        </mxCell>
        <mxCell id="yJR4qd-kgjqClzg5IudC-18" value="&lt;b&gt;&lt;font style=&quot;font-size: 24px;&quot;&gt;Components&lt;/font&gt;&lt;/b&gt;" style="text;html=1;align=center;verticalAlign=middle;whiteSpace=wrap;rounded=0;" parent="1" vertex="1">
          <mxGeometry x="90" y="-765" width="60" height="30" as="geometry" />
        </mxCell>
        <mxCell id="yJR4qd-kgjqClzg5IudC-19" value="&lt;font style=&quot;font-size: 24px;&quot;&gt;&lt;b&gt;Hooks&lt;/b&gt;&lt;/font&gt;" style="text;html=1;align=center;verticalAlign=middle;whiteSpace=wrap;rounded=0;" parent="1" vertex="1">
          <mxGeometry x="290" y="-765" width="60" height="30" as="geometry" />
        </mxCell>
        <mxCell id="yJR4qd-kgjqClzg5IudC-20" value="&lt;b&gt;&lt;font style=&quot;font-size: 24px;&quot;&gt;Pages&lt;/font&gt;&lt;/b&gt;" style="text;html=1;align=center;verticalAlign=middle;whiteSpace=wrap;rounded=0;" parent="1" vertex="1">
          <mxGeometry x="200" y="-885" width="60" height="30" as="geometry" />
        </mxCell>
        <mxCell id="yJR4qd-kgjqClzg5IudC-21" value="&lt;b&gt;&lt;font style=&quot;font-size: 24px;&quot;&gt;Redux&lt;/font&gt;&lt;/b&gt;" style="text;html=1;align=center;verticalAlign=middle;whiteSpace=wrap;rounded=0;" parent="1" vertex="1">
          <mxGeometry x="550" y="-875" width="60" height="30" as="geometry" />
        </mxCell>
        <mxCell id="yJR4qd-kgjqClzg5IudC-24" value="" style="ellipse;whiteSpace=wrap;html=1;" parent="1" vertex="1">
          <mxGeometry x="350" y="-1010" width="120" height="80" as="geometry" />
        </mxCell>
        <mxCell id="yJR4qd-kgjqClzg5IudC-25" value="&lt;b&gt;&lt;font style=&quot;font-size: 18px;&quot;&gt;Core&lt;/font&gt;&lt;/b&gt;" style="text;html=1;align=center;verticalAlign=middle;whiteSpace=wrap;rounded=0;strokeWidth=9;" parent="1" vertex="1">
          <mxGeometry x="355" y="-996.25" width="110" height="52.5" as="geometry" />
        </mxCell>
        <mxCell id="yJR4qd-kgjqClzg5IudC-37" value="" style="endArrow=classic;html=1;rounded=0;exitX=0.827;exitY=0.955;exitDx=0;exitDy=0;exitPerimeter=0;" parent="1" source="yJR4qd-kgjqClzg5IudC-24" edge="1">
          <mxGeometry width="50" height="50" relative="1" as="geometry">
            <mxPoint x="430" y="-910" as="sourcePoint" />
            <mxPoint x="513.0377358490566" y="-900" as="targetPoint" />
          </mxGeometry>
        </mxCell>
        <mxCell id="yJR4qd-kgjqClzg5IudC-38" value="" style="endArrow=classic;html=1;rounded=0;exitX=1;exitY=0;exitDx=0;exitDy=0;entryX=1;entryY=0;entryDx=0;entryDy=0;" parent="1" source="yJR4qd-kgjqClzg5IudC-16" target="yJR4qd-kgjqClzg5IudC-16" edge="1">
          <mxGeometry width="50" height="50" relative="1" as="geometry">
            <mxPoint x="400" y="-800" as="sourcePoint" />
            <mxPoint x="450" y="-850" as="targetPoint" />
          </mxGeometry>
        </mxCell>
        <mxCell id="yJR4qd-kgjqClzg5IudC-39" value="" style="endArrow=classic;html=1;rounded=0;exitX=0.06;exitY=0.805;exitDx=0;exitDy=0;exitPerimeter=0;entryX=1;entryY=0;entryDx=0;entryDy=0;" parent="1" target="yJR4qd-kgjqClzg5IudC-16" edge="1">
          <mxGeometry width="50" height="50" relative="1" as="geometry">
            <mxPoint x="380.00000000000006" y="-929.9999999999999" as="sourcePoint" />
            <mxPoint x="322.8" y="-904.4" as="targetPoint" />
          </mxGeometry>
        </mxCell>
        <mxCell id="yJR4qd-kgjqClzg5IudC-43" value="" style="endArrow=classic;html=1;rounded=0;entryX=0.637;entryY=-0.027;entryDx=0;entryDy=0;entryPerimeter=0;" parent="1" source="yJR4qd-kgjqClzg5IudC-16" target="yJR4qd-kgjqClzg5IudC-14" edge="1">
          <mxGeometry width="50" height="50" relative="1" as="geometry">
            <mxPoint x="150" y="-790" as="sourcePoint" />
            <mxPoint x="200" y="-840" as="targetPoint" />
          </mxGeometry>
        </mxCell>
        <mxCell id="yJR4qd-kgjqClzg5IudC-44" value="" style="endArrow=classic;html=1;rounded=0;entryX=0.5;entryY=0;entryDx=0;entryDy=0;" parent="1" target="yJR4qd-kgjqClzg5IudC-15" edge="1">
          <mxGeometry width="50" height="50" relative="1" as="geometry">
            <mxPoint x="280" y="-840" as="sourcePoint" />
            <mxPoint x="317.18000000000006" y="-788.0100000000002" as="targetPoint" />
          </mxGeometry>
        </mxCell>
        <mxCell id="yJR4qd-kgjqClzg5IudC-45" value="&#xa;&lt;b style=&quot;forced-color-adjust: none; color: rgb(0, 0, 0); font-family: Helvetica; font-size: 12px; font-style: normal; font-variant-ligatures: normal; font-variant-caps: normal; letter-spacing: normal; orphans: 2; text-align: center; text-indent: 0px; text-transform: none; widows: 2; word-spacing: 0px; -webkit-text-stroke-width: 0px; white-space: normal; background-color: rgb(251, 251, 251); text-decoration-thickness: initial; text-decoration-style: initial; text-decoration-color: initial;&quot;&gt;&lt;font style=&quot;forced-color-adjust: none; font-size: 24px;&quot;&gt;Pages&lt;/font&gt;&lt;/b&gt;&#xa;&#xa;" style="rounded=1;whiteSpace=wrap;html=1;" parent="1" vertex="1">
          <mxGeometry x="310" y="500" width="120" height="60" as="geometry" />
        </mxCell>
        <mxCell id="yJR4qd-kgjqClzg5IudC-48" value="&lt;div&gt;&lt;br&gt;&lt;/div&gt;" style="rounded=1;whiteSpace=wrap;html=1;" parent="1" vertex="1">
          <mxGeometry x="320" y="-680" width="140" height="60" as="geometry" />
        </mxCell>
        <mxCell id="yJR4qd-kgjqClzg5IudC-49" value="&lt;b&gt;&lt;font style=&quot;font-size: 24px;&quot;&gt;Pages&lt;/font&gt;&lt;/b&gt;" style="text;html=1;align=center;verticalAlign=middle;whiteSpace=wrap;rounded=0;" parent="1" vertex="1">
          <mxGeometry x="360" y="-665" width="60" height="30" as="geometry" />
        </mxCell>
        <mxCell id="yJR4qd-kgjqClzg5IudC-50" value="&lt;div&gt;&lt;br&gt;&lt;/div&gt;" style="rounded=1;whiteSpace=wrap;html=1;" parent="1" vertex="1">
          <mxGeometry x="180" y="-584" width="120" height="60" as="geometry" />
        </mxCell>
        <mxCell id="yJR4qd-kgjqClzg5IudC-51" value="&lt;div&gt;&lt;br&gt;&lt;/div&gt;" style="rounded=1;whiteSpace=wrap;html=1;" parent="1" vertex="1">
          <mxGeometry x="490" y="-450" width="150" height="60" as="geometry" />
        </mxCell>
        <mxCell id="yJR4qd-kgjqClzg5IudC-52" value="&lt;div&gt;&lt;br&gt;&lt;/div&gt;" style="rounded=1;whiteSpace=wrap;html=1;arcSize=20;" parent="1" vertex="1">
          <mxGeometry x="647" y="-510" width="180" height="60" as="geometry" />
        </mxCell>
        <mxCell id="yJR4qd-kgjqClzg5IudC-53" value="&lt;b&gt;&lt;font style=&quot;font-size: 24px;&quot;&gt;Settings&lt;/font&gt;&lt;/b&gt;" style="text;html=1;align=center;verticalAlign=middle;whiteSpace=wrap;rounded=0;" parent="1" vertex="1">
          <mxGeometry x="210" y="-569" width="60" height="30" as="geometry" />
        </mxCell>
        <mxCell id="yJR4qd-kgjqClzg5IudC-54" value="&lt;b&gt;&lt;font style=&quot;font-size: 24px;&quot;&gt;Questions&lt;/font&gt;&lt;/b&gt;&lt;div&gt;&lt;b&gt;&lt;font style=&quot;font-size: 24px;&quot;&gt;&lt;br&gt;&lt;/font&gt;&lt;/b&gt;&lt;/div&gt;" style="text;html=1;align=center;verticalAlign=middle;whiteSpace=wrap;rounded=0;" parent="1" vertex="1">
          <mxGeometry x="535" y="-420" width="60" height="30" as="geometry" />
        </mxCell>
        <mxCell id="yJR4qd-kgjqClzg5IudC-55" value="&lt;b&gt;&lt;font style=&quot;font-size: 24px;&quot;&gt;FinalScreen&lt;/font&gt;&lt;/b&gt;" style="text;html=1;align=center;verticalAlign=middle;whiteSpace=wrap;rounded=0;" parent="1" vertex="1">
          <mxGeometry x="707" y="-495" width="60" height="30" as="geometry" />
        </mxCell>
        <mxCell id="yJR4qd-kgjqClzg5IudC-59" value="" style="endArrow=classic;html=1;rounded=0;exitX=0;exitY=1;exitDx=0;exitDy=0;entryX=0.75;entryY=0;entryDx=0;entryDy=0;" parent="1" source="yJR4qd-kgjqClzg5IudC-48" target="yJR4qd-kgjqClzg5IudC-50" edge="1">
          <mxGeometry width="50" height="50" relative="1" as="geometry">
            <mxPoint x="230" y="-610" as="sourcePoint" />
            <mxPoint x="180" y="-560" as="targetPoint" />
            <Array as="points" />
          </mxGeometry>
        </mxCell>
        <mxCell id="yJR4qd-kgjqClzg5IudC-61" value="" style="endArrow=classic;html=1;rounded=0;entryX=0;entryY=0;entryDx=0;entryDy=0;" parent="1" target="yJR4qd-kgjqClzg5IudC-52" edge="1">
          <mxGeometry width="50" height="50" relative="1" as="geometry">
            <mxPoint x="460" y="-620" as="sourcePoint" />
            <mxPoint x="510" y="-670" as="targetPoint" />
          </mxGeometry>
        </mxCell>
        <mxCell id="yJR4qd-kgjqClzg5IudC-62" value="" style="endArrow=classic;html=1;rounded=0;" parent="1" target="yJR4qd-kgjqClzg5IudC-51" edge="1">
          <mxGeometry width="50" height="50" relative="1" as="geometry">
            <mxPoint x="385" y="-620" as="sourcePoint" />
            <mxPoint x="435" y="-670" as="targetPoint" />
          </mxGeometry>
        </mxCell>
        <mxCell id="yJR4qd-kgjqClzg5IudC-63" value="&lt;div&gt;&lt;b&gt;&lt;font style=&quot;font-size: 24px;&quot;&gt;TextFieldComp.js&lt;/font&gt;&lt;/b&gt;&lt;br&gt;&lt;/div&gt;" style="rounded=1;whiteSpace=wrap;html=1;" parent="1" vertex="1">
          <mxGeometry x="280" y="-450" width="200" height="60" as="geometry" />
        </mxCell>
        <mxCell id="yJR4qd-kgjqClzg5IudC-64" value="&lt;div&gt;&lt;br&gt;&lt;/div&gt;" style="rounded=1;whiteSpace=wrap;html=1;" parent="1" vertex="1">
          <mxGeometry y="-450" width="200" height="60" as="geometry" />
        </mxCell>
        <mxCell id="yJR4qd-kgjqClzg5IudC-67" value="&lt;font style=&quot;font-size: 24px;&quot;&gt;&lt;b&gt;&lt;font style=&quot;&quot;&gt;SelectedField&lt;/font&gt;.js&lt;/b&gt;&lt;/font&gt;" style="text;html=1;align=center;verticalAlign=middle;whiteSpace=wrap;rounded=0;" parent="1" vertex="1">
          <mxGeometry x="80" y="-435" width="60" height="30" as="geometry" />
        </mxCell>
        <mxCell id="yJR4qd-kgjqClzg5IudC-69" value="" style="endArrow=classic;html=1;rounded=0;entryX=0.594;entryY=0.02;entryDx=0;entryDy=0;entryPerimeter=0;" parent="1" source="yJR4qd-kgjqClzg5IudC-50" target="yJR4qd-kgjqClzg5IudC-63" edge="1">
          <mxGeometry width="50" height="50" relative="1" as="geometry">
            <mxPoint x="300" y="-520" as="sourcePoint" />
            <mxPoint x="410" y="-470" as="targetPoint" />
            <Array as="points" />
          </mxGeometry>
        </mxCell>
        <mxCell id="yJR4qd-kgjqClzg5IudC-70" value="" style="endArrow=classic;html=1;rounded=0;exitX=0.083;exitY=0.987;exitDx=0;exitDy=0;exitPerimeter=0;entryX=0.634;entryY=-0.02;entryDx=0;entryDy=0;entryPerimeter=0;" parent="1" source="yJR4qd-kgjqClzg5IudC-50" target="yJR4qd-kgjqClzg5IudC-64" edge="1">
          <mxGeometry width="50" height="50" relative="1" as="geometry">
            <mxPoint x="360" y="-420" as="sourcePoint" />
            <mxPoint x="410" y="-470" as="targetPoint" />
          </mxGeometry>
        </mxCell>
        <mxCell id="yJR4qd-kgjqClzg5IudC-73" value="" style="edgeStyle=orthogonalEdgeStyle;rounded=0;orthogonalLoop=1;jettySize=auto;html=1;" parent="1" source="yJR4qd-kgjqClzg5IudC-71" edge="1">
          <mxGeometry relative="1" as="geometry">
            <mxPoint x="170" y="-10" as="targetPoint" />
          </mxGeometry>
        </mxCell>
        <mxCell id="yJR4qd-kgjqClzg5IudC-71" value="" style="shape=cylinder3;whiteSpace=wrap;html=1;boundedLbl=1;backgroundOutline=1;size=15;" parent="1" vertex="1">
          <mxGeometry x="40" y="-50" width="60" height="80" as="geometry" />
        </mxCell>
        <mxCell id="yJR4qd-kgjqClzg5IudC-74" value="&lt;b&gt;&lt;font style=&quot;font-size: 18px;&quot;&gt;Api&lt;/font&gt;&lt;/b&gt;" style="text;html=1;align=center;verticalAlign=middle;whiteSpace=wrap;rounded=0;" parent="1" vertex="1">
          <mxGeometry x="25" y="-40" width="90" height="70" as="geometry" />
        </mxCell>
        <mxCell id="yJR4qd-kgjqClzg5IudC-75" value="&lt;b&gt;&lt;font style=&quot;font-size: 18px;&quot;&gt;Trivia DB&lt;/font&gt;&lt;/b&gt;" style="text;html=1;align=center;verticalAlign=middle;whiteSpace=wrap;rounded=0;" parent="1" vertex="1">
          <mxGeometry x="30" y="-100" width="90" height="30" as="geometry" />
        </mxCell>
        <mxCell id="yJR4qd-kgjqClzg5IudC-77" value="&lt;div&gt;&lt;br&gt;&lt;/div&gt;" style="rounded=1;whiteSpace=wrap;html=1;" parent="1" vertex="1">
          <mxGeometry x="180" y="-30" width="100" height="50" as="geometry" />
        </mxCell>
        <mxCell id="yJR4qd-kgjqClzg5IudC-86" value="" style="edgeStyle=orthogonalEdgeStyle;rounded=0;orthogonalLoop=1;jettySize=auto;html=1;exitX=1;exitY=0.5;exitDx=0;exitDy=0;" parent="1" source="yJR4qd-kgjqClzg5IudC-77" target="yJR4qd-kgjqClzg5IudC-85" edge="1">
          <mxGeometry relative="1" as="geometry">
            <Array as="points" />
          </mxGeometry>
        </mxCell>
        <mxCell id="yJR4qd-kgjqClzg5IudC-78" value="&lt;font style=&quot;font-size: 18px;&quot;&gt;&lt;b&gt;Settings.js&lt;/b&gt;&lt;/font&gt;" style="text;html=1;align=center;verticalAlign=middle;whiteSpace=wrap;rounded=0;" parent="1" vertex="1">
          <mxGeometry x="200" y="-20" width="60" height="30" as="geometry" />
        </mxCell>
        <mxCell id="yJR4qd-kgjqClzg5IudC-79" value="" style="ellipse;whiteSpace=wrap;html=1;" parent="1" vertex="1">
          <mxGeometry x="300" y="-190" width="130" height="45" as="geometry" />
        </mxCell>
        <mxCell id="yJR4qd-kgjqClzg5IudC-81" value="&lt;b&gt;&lt;font style=&quot;font-size: 18px;&quot;&gt;Store&lt;/font&gt;&lt;/b&gt;" style="text;html=1;align=center;verticalAlign=middle;whiteSpace=wrap;rounded=0;" parent="1" vertex="1">
          <mxGeometry x="335" y="-182.5" width="60" height="30" as="geometry" />
        </mxCell>
        <mxCell id="yJR4qd-kgjqClzg5IudC-82" value="&lt;b&gt;&lt;font style=&quot;font-size: 18px;&quot;&gt;Redux&lt;/font&gt;&lt;/b&gt;" style="text;html=1;align=center;verticalAlign=middle;whiteSpace=wrap;rounded=0;" parent="1" vertex="1">
          <mxGeometry x="335" y="-250" width="60" height="30" as="geometry" />
        </mxCell>
        <mxCell id="yJR4qd-kgjqClzg5IudC-93" value="" style="edgeStyle=orthogonalEdgeStyle;rounded=0;orthogonalLoop=1;jettySize=auto;html=1;" parent="1" source="yJR4qd-kgjqClzg5IudC-85" target="yJR4qd-kgjqClzg5IudC-92" edge="1">
          <mxGeometry relative="1" as="geometry" />
        </mxCell>
        <mxCell id="yJR4qd-kgjqClzg5IudC-85" value="" style="rhombus;whiteSpace=wrap;html=1;" parent="1" vertex="1">
          <mxGeometry x="330" y="-40" width="140" height="75" as="geometry" />
        </mxCell>
        <mxCell id="yJR4qd-kgjqClzg5IudC-87" value="&lt;b&gt;&lt;font style=&quot;font-size: 18px;&quot;&gt;Questions&lt;/font&gt;&lt;/b&gt;" style="text;html=1;align=center;verticalAlign=middle;whiteSpace=wrap;rounded=0;" parent="1" vertex="1">
          <mxGeometry x="370" y="-17.5" width="60" height="30" as="geometry" />
        </mxCell>
        <mxCell id="yJR4qd-kgjqClzg5IudC-88" value="" style="endArrow=classic;startArrow=classic;html=1;rounded=0;exitX=0.5;exitY=0;exitDx=0;exitDy=0;entryX=0.04;entryY=0.827;entryDx=0;entryDy=0;entryPerimeter=0;" parent="1" source="yJR4qd-kgjqClzg5IudC-77" target="yJR4qd-kgjqClzg5IudC-79" edge="1">
          <mxGeometry width="50" height="50" relative="1" as="geometry">
            <mxPoint x="195" y="-37.5" as="sourcePoint" />
            <mxPoint x="330" y="-152.5" as="targetPoint" />
          </mxGeometry>
        </mxCell>
        <mxCell id="yJR4qd-kgjqClzg5IudC-89" value="" style="endArrow=classic;startArrow=classic;html=1;rounded=0;exitX=0.6;exitY=0.987;exitDx=0;exitDy=0;exitPerimeter=0;entryX=0.5;entryY=0;entryDx=0;entryDy=0;" parent="1" source="yJR4qd-kgjqClzg5IudC-79" target="yJR4qd-kgjqClzg5IudC-85" edge="1">
          <mxGeometry width="50" height="50" relative="1" as="geometry">
            <mxPoint x="310" y="40" as="sourcePoint" />
            <mxPoint x="360" y="-10" as="targetPoint" />
            <Array as="points" />
          </mxGeometry>
        </mxCell>
        <mxCell id="yJR4qd-kgjqClzg5IudC-92" value="" style="shape=hexagon;perimeter=hexagonPerimeter2;whiteSpace=wrap;html=1;fixedSize=1;" parent="1" vertex="1">
          <mxGeometry x="560" y="-42.5" width="170" height="80" as="geometry" />
        </mxCell>
        <mxCell id="yJR4qd-kgjqClzg5IudC-94" value="&lt;b&gt;&lt;font style=&quot;font-size: 18px;&quot;&gt;&lt;font style=&quot;&quot;&gt;FinalScreen&lt;/font&gt;.js&lt;/font&gt;&lt;/b&gt;" style="text;strokeColor=none;fillColor=none;spacingLeft=4;spacingRight=4;overflow=hidden;rotatable=0;points=[[0,0.5],[1,0.5]];portConstraint=eastwest;fontSize=12;whiteSpace=wrap;html=1;" parent="1" vertex="1">
          <mxGeometry x="580" y="-22.5" width="160" height="40" as="geometry" />
        </mxCell>
        <mxCell id="yJR4qd-kgjqClzg5IudC-98" value="" style="endArrow=classic;startArrow=classic;html=1;rounded=0;entryX=0.449;entryY=-0.019;entryDx=0;entryDy=0;entryPerimeter=0;" parent="1" target="yJR4qd-kgjqClzg5IudC-92" edge="1">
          <mxGeometry width="50" height="50" relative="1" as="geometry">
            <mxPoint x="430" y="-160" as="sourcePoint" />
            <mxPoint x="480" y="-210" as="targetPoint" />
          </mxGeometry>
        </mxCell>
      </root>
    </mxGraphModel>
  </diagram>
</mxfile>
